<svg xmlns="http://www.w3.org/2000/svg" viewBox="0 0 320 220" fill="none" role="img" aria-labelledby="title-pipeline-empty"><title id="title-pipeline-empty">Pipeline à remplir</title><g stroke="#171714" stroke-width="1.7" stroke-linecap="round" stroke-linejoin="round"><path d="M52 180h216" stroke="#171714" opacity=".24"/><path d="M52 176v8m216-8v8" stroke="#171714" opacity=".24"/><rect x="62" y="58" width="56" height="113" rx="2"/><rect x="132" y="58" width="56" height="113" rx="2"/><rect x="202" y="58" width="56" height="113" rx="2"/><path d="M62 79h56M132 79h56M202 79h56"/><rect x="70" y="89" width="40" height="31" rx="1" fill="#2846B8" stroke="#2846B8"/><path d="M80 99h20M80 108h12" stroke="#F4F0E7"/><g stroke="#2846B8"><path d="M145 111h30m-8-8 8 8-8 8M216 111h28"/></g><path d="M140 90h40v51h-40zM210 90h40v51h-40z" opacity=".22" stroke-dasharray="3 5"/></g></svg>
